ffmpeg started on 2016-12-08 at 02:49:58
Report written to "Output/x264/results/ffmpeg/sintelslower7000k.log"
Command line:
Tools/ffmpeg/ffmpeg -benchmark -y -i Input/y4m/sintel.y4m -c:v libx264 -preset slower -b:v 7000k -an Output/x264/encoded/sintelslower7000k.mkv
ffmpeg version N-82227-gdb23fde Copyright (c) 2000-2016 the FFmpeg developers
  built with gcc 5.4.0 (Ubuntu 5.4.0-6ubuntu1~16.04.2) 20160609
  configuration: --prefix=/home/jaroslav/ffmpeg_build --pkg-config-flags=--static --extra-cflags=-I/home/jaroslav/ffmpeg_build/include --extra-ldflags=-L/home/jaroslav/ffmpeg_build/lib --bindir=/home/jaroslav/bin --enable-gpl --enable-libass --enable-libfdk-aac --enable-libfreetype --enable-libmp3lame --enable-libopus --enable-libtheora --enable-libvorbis --enable-libvpx --enable-libx264 --enable-libx265 --enable-nvenc --enable-libmfx --enable-libxvid --enable-libgsm --enable-libopencore-amrnb --enable-version3 --enable-nonfree
  libavutil      55. 35.100 / 55. 35.100
  libavcodec     57. 66.101 / 57. 66.101
  libavformat    57. 57.100 / 57. 57.100
  libavdevice    57.  2.100 / 57.  2.100
  libavfilter     6. 66.100 /  6. 66.100
  libswscale      4.  3.100 /  4.  3.100
  libswresample   2.  4.100 /  2.  4.100
  libpostproc    54.  2.100 / 54.  2.100
Input #0, yuv4mpegpipe, from 'Input/y4m/sintel.y4m':
  Duration: 00:00:20.83, start: 0.000000, bitrate: 2057307 kb/s
    Stream #0:0: Video: rawvideo (I420 / 0x30323449), yuv420p(progressive), 4096x1744, SAR 1:1 DAR 256:109, 24 fps, 24 tbr, 24 tbn, 24 tbc
[libx264 @ 0x2a391c0] using SAR=1/1
[libx264 @ 0x2a391c0] DPB size (8 frames, 223232 mbs) > level limit (6 frames, 184320 mbs)
[libx264 @ 0x2a391c0] using cpu capabilities: MMX2 SSE2Fast SSSE3 SSE4.2 AVX FMA3 AVX2 LZCNT BMI2
[libx264 @ 0x2a391c0] profile High, level 5.2
[libx264 @ 0x2a391c0] 264 - core 148 - H.264/MPEG-4 AVC codec - Copyleft 2003-2016 - http://www.videolan.org/x264.html - options: cabac=1 ref=8 deblock=1:0:0 analyse=0x3:0x133 me=umh subme=9 psy=1 psy_rd=1.00:0.00 mixed_ref=1 me_range=16 chroma_me=1 trellis=2 8x8dct=1 cqm=0 deadzone=21,11 fast_pskip=1 chroma_qp_offset=-2 threads=6 lookahead_threads=1 sliced_threads=0 nr=0 decimate=1 interlaced=0 bluray_compat=0 constrained_intra=0 bframes=3 b_pyramid=2 b_adapt=2 b_bias=0 direct=3 weightb=1 open_gop=0 weightp=2 keyint=250 keyint_min=24 scenecut=40 intra_refresh=0 rc_lookahead=60 rc=abr mbtree=1 bitrate=7000 ratetol=1.0 qcomp=0.60 qpmin=0 qpmax=69 qpstep=4 ip_ratio=1.40 aq=1:1.00
Output #0, matroska, to 'Output/x264/encoded/sintelslower7000k.mkv':
  Metadata:
    encoder         : Lavf57.57.100
    Stream #0:0: Video: h264 (libx264) (H264 / 0x34363248), yuv420p, 4096x1744 [SAR 1:1 DAR 256:109], q=-1--1, 7000 kb/s, 24 fps, 1k tbn, 24 tbc
    Metadata:
      encoder         : Lavc57.66.101 libx264
    Side data:
      cpb: bitrate max/min/avg: 0/0/7000000 buffer size: 0 vbv_delay: -1
Stream mapping:
  Stream #0:0 -> #0:0 (rawvideo (native) -> h264 (libx264))
Press [q] to stop, [?] for help
frame=    5 fps=0.0 q=0.0 size=       0kB time=00:00:00.00 bitrate=N/A speed=   0x    frame=   14 fps= 14 q=0.0 size=       0kB time=00:00:00.00 bitrate=N/A speed=   0x    frame=   23 fps= 15 q=0.0 size=       0kB time=00:00:00.00 bitrate=N/A speed=   0x    frame=   29 fps= 14 q=0.0 size=       0kB time=00:00:00.00 bitrate=N/A speed=   0x    frame=   33 fps=5.9 q=0.0 size=       0kB time=00:00:00.00 bitrate=N/A speed=   0x    frame=   34 fps=3.9 q=0.0 size=       0kB time=00:00:00.00 bitrate=N/A speed=   0x    frame=   35 fps=2.9 q=0.0 size=       0kB time=00:00:00.00 bitrate=N/A speed=   0x    frame=   44 fps=3.5 q=0.0 size=       0kB time=00:00:00.00 bitrate=N/A speed=   0x    frame=   53 fps=4.1 q=0.0 size=       0kB time=00:00:00.00 bitrate=N/A speed=   0x    frame=   62 fps=4.6 q=0.0 size=       0kB time=00:00:00.00 bitrate=N/A speed=   0x    frame=   67 fps=3.3 q=0.0 size=       0kB time=00:00:00.00 bitrate=N/A speed=   0x    frame=   71 fps=3.4 q=27.0 size=       1kB time=-00:00:00.08 bitrate=N/A speed=N/A    frame=   73 fps=3.3 q=37.0 size=       1kB time=00:00:00.00 bitrate=5888.0kbits/s speed=4.54e-05x    frame=   74 fps=3.3 q=31.0 size=       1kB time=00:00:00.04 bitrate= 136.9kbits/s speed=0.0019x    frame=   75 fps=3.2 q=34.0 size=       1kB time=00:00:00.08 bitrate=  70.1kbits/s speed=0.00362x    frame=   77 fps=3.1 q=41.0 size=       1kB time=00:00:00.16 bitrate=  35.0kbits/s speed=0.0068x    frame=   78 fps=3.1 q=46.0 size=       1kB time=00:00:00.20 bitrate=  28.2kbits/s speed=0.00826x    frame=   81 fps=3.1 q=46.0 size=       1kB time=00:00:00.33 bitrate=  17.6kbits/s speed=0.0128x    frame=   83 fps=3.1 q=46.0 size=       1kB time=00:00:00.41 bitrate=  14.1kbits/s speed=0.0156x    frame=   84 fps=3.0 q=45.0 size=       1kB time=00:00:00.45 bitrate=  12.8kbits/s speed=0.0166x    frame=   86 fps=3.0 q=46.0 size=       1kB time=00:00:00.54 bitrate=  10.8kbits/s speed=0.0189x    frame=   89 fps=3.0 q=45.0 size=       1kB time=00:00:00.66 bitrate=   8.8kbits/s speed=0.0226x    frame=   91 fps=3.0 q=45.0 size=       1kB time=00:00:00.75 bitrate=   7.8kbits/s speed=0.0249x    frame=   92 fps=3.0 q=45.0 size=       1kB time=00:00:00.79 bitrate=   7.4kbits/s speed=0.0255x    frame=   94 fps=2.9 q=45.0 size=       1kB time=00:00:00.87 bitrate=   6.7kbits/s speed=0.0275x    frame=   95 fps=2.9 q=45.0 size=       1kB time=00:00:00.91 bitrate=   6.4kbits/s speed=0.0282x    frame=   98 fps=2.9 q=45.0 size=       1kB time=00:00:01.04 bitrate=   5.6kbits/s speed=0.0311x    frame=  100 fps=2.9 q=44.0 size=       1kB time=00:00:01.12 bitrate=   5.2kbits/s speed=0.033x    frame=  101 fps=2.9 q=44.0 size=       1kB time=00:00:01.16 bitrate=   5.0kbits/s speed=0.0336x    frame=  103 fps=2.9 q=44.0 size=       1kB time=00:00:01.25 bitrate=   4.7kbits/s speed=0.0348x    frame=  105 fps=2.9 q=44.0 size=       1kB time=00:00:01.33 bitrate=   4.4kbits/s speed=0.0365x    frame=  107 fps=2.8 q=44.0 size=       1kB time=00:00:01.41 bitrate=   4.2kbits/s speed=0.0377x    frame=  109 fps=2.8 q=44.0 size=       1kB time=00:00:01.50 bitrate=   3.9kbits/s speed=0.0389x    frame=  111 fps=2.8 q=43.0 size=       1kB time=00:00:01.58 bitrate=   3.7kbits/s speed=0.0402x    frame=  113 fps=2.8 q=43.0 size=       1kB time=00:00:01.66 bitrate=   3.5kbits/s speed=0.0417x    frame=  115 fps=2.8 q=43.0 size=       1kB time=00:00:01.75 bitrate=   3.4kbits/s speed=0.0432x    frame=  117 fps=2.8 q=43.0 size=       1kB time=00:00:01.83 bitrate=   3.2kbits/s speed=0.0443x    frame=  119 fps=2.8 q=43.0 size=       1kB time=00:00:01.91 bitrate=   3.1kbits/s speed=0.0454x    frame=  121 fps=2.8 q=43.0 size=       1kB time=00:00:02.00 bitrate=   2.9kbits/s speed=0.0466x    frame=  122 fps=2.8 q=42.0 size=       1kB time=00:00:02.04 bitrate=   2.9kbits/s speed=0.047x    frame=  124 fps=2.8 q=42.0 size=       1kB time=00:00:02.12 bitrate=   2.8kbits/s speed=0.0479x    frame=  125 fps=2.8 q=42.0 size=       1kB time=00:00:02.16 bitrate=   2.7kbits/s speed=0.048x    frame=  127 fps=2.8 q=42.0 size=       1kB time=00:00:02.25 bitrate=   2.6kbits/s speed=0.0488x    frame=  128 fps=2.7 q=42.0 size=       1kB time=00:00:02.29 bitrate=   2.6kbits/s speed=0.0492x    frame=  130 fps=2.7 q=42.0 size=       1kB time=00:00:02.37 bitrate=   2.5kbits/s speed=0.0498x    frame=  132 fps=2.7 q=42.0 size=       1kB time=00:00:02.45 bitrate=   2.4kbits/s speed=0.0507x    frame=  133 fps=2.7 q=42.0 size=       1kB time=00:00:02.50 bitrate=   2.4kbits/s speed=0.051x    frame=  135 fps=2.7 q=42.0 size=       1kB time=00:00:02.58 bitrate=   2.3kbits/s speed=0.052x    frame=  137 fps=2.7 q=42.0 size=       1kB time=00:00:02.66 bitrate=   2.2kbits/s speed=0.0517x    frame=  139 fps=2.6 q=42.0 size=       1kB time=00:00:02.75 bitrate=   2.1kbits/s speed=0.0523x    frame=  141 fps=2.6 q=42.0 size=       1kB time=00:00:02.83 bitrate=   2.1kbits/s speed=0.0531x    frame=  143 fps=2.6 q=42.0 size=       1kB time=00:00:02.91 bitrate=   2.0kbits/s speed=0.0537x    frame=  144 fps=2.6 q=42.0 size=       1kB time=00:00:02.95 bitrate=   2.0kbits/s speed=0.054x    frame=  145 fps=2.6 q=42.0 size=       1kB time=00:00:03.00 bitrate=   2.0kbits/s speed=0.0542x    frame=  147 fps=2.6 q=42.0 size=       1kB time=00:00:03.08 bitrate=   1.9kbits/s speed=0.0545x    frame=  149 fps=2.6 q=42.0 size=       1kB time=00:00:03.16 bitrate=   1.9kbits/s speed=0.0549x    frame=  151 fps=2.6 q=42.0 size=       1kB time=00:00:03.25 bitrate=   1.8kbits/s speed=0.0556x    frame=  152 fps=2.6 q=42.0 size=       1kB time=00:00:03.29 bitrate=   1.8kbits/s speed=0.0556x    frame=  153 fps=2.6 q=42.0 size=       1kB time=00:00:03.33 bitrate=   1.8kbits/s speed=0.0557x    frame=  155 fps=2.6 q=42.0 size=       1kB time=00:00:03.41 bitrate=   1.7kbits/s speed=0.0563x    frame=  157 fps=2.6 q=41.0 size=       1kB time=00:00:03.50 bitrate=   1.7kbits/s speed=0.057x    frame=  158 fps=2.5 q=41.0 size=       1kB time=00:00:03.54 bitrate=   1.7kbits/s speed=0.057x    frame=  159 fps=2.5 q=41.0 size=       1kB time=00:00:03.58 bitrate=   1.6kbits/s speed=0.0571x    frame=  160 fps=2.5 q=41.0 size=       1kB time=00:00:03.62 bitrate=   1.6kbits/s speed=0.057x    frame=  162 fps=2.5 q=41.0 size=       1kB time=00:00:03.70 bitrate=   1.6kbits/s speed=0.0575x    frame=  164 fps=2.5 q=41.0 size=       1kB time=00:00:03.79 bitrate=   1.6kbits/s speed=0.0583x    frame=  166 fps=2.5 q=41.0 size=       1kB time=00:00:03.87 bitrate=   1.5kbits/s speed=0.0586x    frame=  167 fps=2.5 q=41.0 size=       1kB time=00:00:03.91 bitrate=   1.5kbits/s speed=0.0586x    frame=  170 fps=2.5 q=41.0 size=       1kB time=00:00:04.04 bitrate=   1.5kbits/s speed=0.0599x    frame=  172 fps=2.5 q=41.0 size=       1kB time=00:00:04.12 bitrate=   1.4kbits/s speed=0.0604x    frame=  173 fps=2.5 q=41.0 size=       1kB time=00:00:04.16 bitrate=   1.4kbits/s speed=0.0598x    frame=  177 fps=2.5 q=41.0 size=       1kB time=00:00:04.33 bitrate=   1.4kbits/s speed=0.0617x    frame=  179 fps=2.5 q=40.0 size=       1kB time=00:00:04.41 bitrate=   1.3kbits/s speed=0.0619x    frame=  181 fps=2.5 q=38.0 size=       1kB time=00:00:04.50 bitrate=   1.3kbits/s speed=0.0627x    frame=  182 fps=2.5 q=40.0 size=       1kB time=00:00:04.54 bitrate=   1.3kbits/s speed=0.0626x    frame=  184 fps=2.5 q=40.0 size=       1kB time=00:00:04.62 bitrate=   1.3kbits/s speed=0.0632x    frame=  188 fps=2.6 q=40.0 size=    4281kB time=00:00:04.79 bitrate=7316.1kbits/s speed=0.065x    frame=  191 fps=2.6 q=40.0 size=    4281kB time=00:00:04.91 bitrate=7130.1kbits/s speed=0.0659x    frame=  193 fps=2.6 q=40.0 size=    4281kB time=00:00:05.00 bitrate=7011.8kbits/s speed=0.0666x    frame=  195 fps=2.6 q=40.0 size=    4281kB time=00:00:05.08 bitrate=6897.3kbits/s speed=0.067x    frame=  196 fps=2.6 q=40.0 size=    4281kB time=00:00:05.12 bitrate=6840.8kbits/s speed=0.0671x    frame=  197 fps=2.6 q=40.0 size=    4281kB time=00:00:05.16 bitrate=6785.2kbits/s speed=0.0672x    frame=  198 fps=2.5 q=40.0 size=    4281kB time=00:00:05.20 bitrate=6731.8kbits/s speed=0.067x    frame=  200 fps=2.6 q=40.0 size=    4281kB time=00:00:05.29 bitrate=6625.0kbits/s speed=0.0676x    frame=  202 fps=2.6 q=40.0 size=    4281kB time=00:00:05.37 bitrate=6522.7kbits/s speed=0.068x    frame=  203 fps=2.5 q=40.0 size=    4281kB time=00:00:05.41 bitrate=6472.1kbits/s speed=0.0681x    frame=  205 fps=2.6 q=40.0 size=    4281kB time=00:00:05.50 bitrate=6374.5kbits/s speed=0.0685x    frame=  207 fps=2.6 q=40.0 size=    4281kB time=00:00:05.58 bitrate=6279.7kbits/s speed=0.0688x    frame=  209 fps=2.6 q=40.0 size=    4281kB time=00:00:05.66 bitrate=6186.7kbits/s speed=0.0693x    frame=  211 fps=2.6 q=40.0 size=    4281kB time=00:00:05.75 bitrate=6097.4kbits/s speed=0.0698x    frame=  213 fps=2.6 q=40.0 size=    4281kB time=00:00:05.83 bitrate=6010.6kbits/s speed=0.0702x    frame=  215 fps=2.6 q=40.0 size=    4281kB time=00:00:05.91 bitrate=5925.3kbits/s speed=0.0706x    frame=  216 fps=2.6 q=40.0 size=    4281kB time=00:00:05.95 bitrate=5884.5kbits/s speed=0.0705x    frame=  219 fps=2.6 q=40.0 size=    4281kB time=00:00:06.08 bitrate=5763.6kbits/s speed=0.0714x    frame=  221 fps=2.6 q=40.0 size=    4281kB time=00:00:06.16 bitrate=5685.1kbits/s speed=0.0718x    frame=  222 fps=2.6 q=40.0 size=    4281kB time=00:00:06.20 bitrate=5647.6kbits/s speed=0.0716x    frame=  225 fps=2.6 q=40.0 size=    4281kB time=00:00:06.33 bitrate=5536.1kbits/s speed=0.0726x    frame=  228 fps=2.6 q=40.0 size=    4281kB time=00:00:06.45 bitrate=5429.0kbits/s speed=0.0723x    frame=  232 fps=2.6 q=40.0 size=    4281kB time=00:00:06.62 bitrate=5292.2kbits/s speed=0.0734x    frame=  234 fps=2.6 q=39.0 size=    4281kB time=00:00:06.70 bitrate=5226.7kbits/s speed=0.0732x    frame=  236 fps=2.6 q=39.0 size=    4281kB time=00:00:06.79 bitrate=5162.1kbits/s speed=0.0735x    frame=  237 fps=2.6 q=39.0 size=    4281kB time=00:00:06.83 bitrate=5131.1kbits/s speed=0.0735x    frame=  240 fps=2.6 q=39.0 size=    4281kB time=00:00:06.95 bitrate=5038.9kbits/s speed=0.0742x    frame=  242 fps=2.5 q=39.0 size=    4281kB time=00:00:07.04 bitrate=4978.8kbits/s speed=0.0742x    frame=  243 fps=2.5 q=39.0 size=    4281kB time=00:00:07.08 bitrate=4950.0kbits/s speed=0.0742x    frame=  245 fps=2.5 q=39.0 size=    4281kB time=00:00:07.16 bitrate=4892.0kbits/s speed=0.0744x    frame=  248 fps=2.5 q=39.0 size=    4281kB time=00:00:07.29 bitrate=4808.2kbits/s speed=0.0747x    frame=  250 fps=2.5 q=39.0 size=    4281kB time=00:00:07.37 bitrate=4754.1kbits/s speed=0.0749x    frame=  253 fps=2.6 q=39.0 size=    4281kB time=00:00:07.50 bitrate=4674.8kbits/s speed=0.0757x    frame=  259 fps=2.6 q=39.0 size=    6386kB time=00:00:07.75 bitrate=6749.3kbits/s speed=0.0777x    frame=  262 fps=2.6 q=39.0 size=    6386kB time=00:00:07.87 bitrate=6642.2kbits/s speed=0.0778x    frame=  266 fps=2.6 q=39.0 size=    6386kB time=00:00:08.04 bitrate=6504.2kbits/s speed=0.0791x    frame=  268 fps=2.6 q=39.0 size=    6386kB time=00:00:08.12 bitrate=6437.8kbits/s speed=0.0789x    frame=  269 fps=2.6 q=39.0 size=    6386kB time=00:00:08.16 bitrate=6404.7kbits/s speed=0.0788x    frame=  270 fps=2.6 q=39.0 size=    6386kB time=00:00:08.20 bitrate=6372.7kbits/s speed=0.0788x    frame=  272 fps=2.6 q=39.0 size=    6386kB time=00:00:08.29 bitrate=6308.2kbits/s speed=0.0791x    frame=  274 fps=2.6 q=39.0 size=    6386kB time=00:00:08.37 bitrate=6245.7kbits/s speed=0.0794x    frame=  276 fps=2.6 q=39.0 size=    6386kB time=00:00:08.45 bitrate=6184.4kbits/s speed=0.0797x    frame=  277 fps=2.6 q=39.0 size=    6386kB time=00:00:08.50 bitrate=6153.8kbits/s speed=0.0797x    frame=  279 fps=2.6 q=39.0 size=    6386kB time=00:00:08.58 bitrate=6094.3kbits/s speed=0.0798x    frame=  283 fps=2.6 q=39.0 size=    6386kB time=00:00:08.75 bitrate=5978.0kbits/s speed=0.0809x    frame=  284 fps=2.6 q=39.0 size=    6386kB time=00:00:08.79 bitrate=5949.5kbits/s speed=0.0807x    frame=  287 fps=2.6 q=38.0 size=    6386kB time=00:00:08.91 bitrate=5866.1kbits/s speed=0.081x    frame=  289 fps=2.6 q=39.0 size=    6386kB time=00:00:09.00 bitrate=5812.0kbits/s speed=0.0814x    frame=  291 fps=2.6 q=38.0 size=    6386kB time=00:00:09.08 bitrate=5758.9kbits/s speed=0.0817x    frame=  293 fps=2.6 q=38.0 size=    6386kB time=00:00:09.16 bitrate=5706.1kbits/s speed=0.0816x    frame=  296 fps=2.6 q=38.0 size=    6386kB time=00:00:09.29 bitrate=5629.4kbits/s speed=0.0824x    frame=  299 fps=2.6 q=38.0 size=    6386kB time=00:00:09.41 bitrate=5554.6kbits/s speed=0.0829x    frame=  301 fps=2.6 q=38.0 size=    6386kB time=00:00:09.50 bitrate=5506.1kbits/s speed=0.0827x    frame=  305 fps=2.6 q=38.0 size=    6386kB time=00:00:09.66 bitrate=5411.0kbits/s speed=0.0837x    frame=  307 fps=2.6 q=38.0 size=    6386kB time=00:00:09.75 bitrate=5365.0kbits/s speed=0.0837x    frame=  311 fps=2.6 q=38.0 size=    6386kB time=00:00:09.91 bitrate=5274.6kbits/s speed=0.0841x    frame=  314 fps=2.7 q=38.0 size=    6386kB time=00:00:10.04 bitrate=5209.0kbits/s speed=0.0848x    frame=  317 fps=2.7 q=38.0 size=    6386kB time=00:00:10.16 bitrate=5144.9kbits/s speed=0.0854x    frame=  319 fps=2.7 q=37.0 size=    6386kB time=00:00:10.25 bitrate=5103.3kbits/s speed=0.0857x    frame=  320 fps=2.7 q=37.0 size=    6386kB time=00:00:10.29 bitrate=5082.4kbits/s speed=0.0853x    frame=  324 fps=2.7 q=37.0 size=    6386kB time=00:00:10.45 bitrate=5001.8kbits/s speed=0.0863x    frame=  326 fps=2.7 q=37.0 size=    6386kB time=00:00:10.54 bitrate=4961.9kbits/s speed=0.0866x    frame=  327 fps=2.7 q=37.0 size=    6386kB time=00:00:10.58 bitrate=4942.7kbits/s speed=0.0864x    frame=  332 fps=2.7 q=37.0 size=    6386kB time=00:00:10.79 bitrate=4847.0kbits/s speed=0.0877x    frame=  333 fps=2.7 q=37.0 size=    6386kB time=00:00:10.83 bitrate=4828.7kbits/s speed=0.0876x    frame=  335 fps=2.7 q=37.0 size=    6386kB time=00:00:10.91 bitrate=4791.5kbits/s speed=0.0879x    frame=  342 fps=2.7 q=37.0 size=    8504kB time=00:00:11.20 bitrate=6215.1kbits/s speed=0.0897x    frame=  345 fps=2.7 q=37.0 size=    8504kB time=00:00:11.33 bitrate=6146.5kbits/s speed=0.0903x    frame=  348 fps=2.7 q=37.0 size=    8504kB time=00:00:11.45 bitrate=6079.5kbits/s speed=0.0905x    frame=  350 fps=2.8 q=37.0 size=    8504kB time=00:00:11.54 bitrate=6035.2kbits/s speed=0.0908x    frame=  353 fps=2.8 q=36.0 size=    8504kB time=00:00:11.66 bitrate=5970.6kbits/s speed=0.0912x    frame=  355 fps=2.8 q=37.0 size=    8504kB time=00:00:11.75 bitrate=5928.4kbits/s speed=0.0914x    frame=  358 fps=2.8 q=36.0 size=    8504kB time=00:00:11.87 bitrate=5866.0kbits/s speed=0.0919x    frame=  360 fps=2.8 q=36.0 size=    8504kB time=00:00:11.95 bitrate=5825.3kbits/s speed=0.0921x    frame=  363 fps=2.8 q=36.0 size=    8504kB time=00:00:12.08 bitrate=5765.0kbits/s speed=0.0926x    frame=  366 fps=2.8 q=36.0 size=    8504kB time=00:00:12.20 bitrate=5706.0kbits/s speed=0.0932x    frame=  368 fps=2.8 q=36.0 size=    8504kB time=00:00:12.29 bitrate=5667.0kbits/s speed=0.0934x    frame=  370 fps=2.8 q=36.0 size=    8504kB time=00:00:12.37 bitrate=5629.0kbits/s speed=0.0936x    frame=  374 fps=2.8 q=36.0 size=    8504kB time=00:00:12.54 bitrate=5554.1kbits/s speed=0.0944x    frame=  378 fps=2.8 q=36.0 size=    8504kB time=00:00:12.70 bitrate=5481.5kbits/s speed=0.0949x    frame=  382 fps=2.8 q=35.0 size=    8504kB time=00:00:12.87 bitrate=5410.4kbits/s speed=0.0956x    frame=  385 fps=2.8 q=35.0 size=    8504kB time=00:00:13.00 bitrate=5358.4kbits/s speed=0.0962x    frame=  389 fps=2.9 q=35.0 size=    8504kB time=00:00:13.16 bitrate=5290.5kbits/s speed=0.0969x    frame=  392 fps=2.9 q=35.0 size=    8504kB time=00:00:13.29 bitrate=5240.7kbits/s speed=0.0972x    frame=  396 fps=2.9 q=35.0 size=    8504kB time=00:00:13.45 bitrate=5176.1kbits/s speed=0.0978x    frame=  399 fps=2.9 q=35.0 size=    8504kB time=00:00:13.58 bitrate=5128.4kbits/s speed=0.0984x    frame=  402 fps=2.9 q=35.0 size=    8504kB time=00:00:13.70 bitrate=5081.7kbits/s speed=0.0989x    frame=  403 fps=2.9 q=35.0 size=    8504kB time=00:00:13.75 bitrate=5066.2kbits/s speed=0.0988x    frame=  407 fps=2.9 q=34.0 size=    8504kB time=00:00:13.91 bitrate=5005.4kbits/s speed=0.0994x    frame=  411 fps=2.9 q=34.0 size=    8504kB time=00:00:14.08 bitrate=4946.4kbits/s speed= 0.1x    frame=  415 fps=2.9 q=34.0 size=    8504kB time=00:00:14.25 bitrate=4888.4kbits/s speed=0.101x    frame=  419 fps=2.9 q=34.0 size=    8504kB time=00:00:14.41 bitrate=4831.8kbits/s speed=0.101x    frame=  423 fps=3.0 q=34.0 size=    8504kB time=00:00:14.58 bitrate=4776.8kbits/s speed=0.102x    frame=  424 fps=3.0 q=34.0 size=    8504kB time=00:00:14.62 bitrate=4763.1kbits/s speed=0.102x    frame=  430 fps=3.0 q=33.0 size=    8504kB time=00:00:14.87 bitrate=4683.0kbits/s speed=0.103x    frame=  431 fps=3.0 q=33.0 size=    8504kB time=00:00:14.91 bitrate=4669.9kbits/s speed=0.103x    frame=  437 fps=3.0 q=33.0 size=   10537kB time=00:00:15.16 bitrate=5691.0kbits/s speed=0.104x    frame=  439 fps=3.0 q=33.0 size=   10537kB time=00:00:15.25 bitrate=5660.0kbits/s speed=0.104x    frame=  441 fps=3.0 q=33.0 size=   10537kB time=00:00:15.33 bitrate=5629.3kbits/s speed=0.104x    frame=  444 fps=3.0 q=33.0 size=   10537kB time=00:00:15.45 bitrate=5583.8kbits/s speed=0.105x    frame=  445 fps=3.0 q=33.0 size=   10537kB time=00:00:15.50 bitrate=5568.7kbits/s speed=0.105x    frame=  448 fps=3.0 q=33.0 size=   10537kB time=00:00:15.62 bitrate=5524.2kbits/s speed=0.105x    frame=  450 fps=3.0 q=33.0 size=   10537kB time=00:00:15.70 bitrate=5495.0kbits/s speed=0.105x    frame=  452 fps=3.0 q=33.0 size=   10537kB time=00:00:15.79 bitrate=5465.7kbits/s speed=0.105x    frame=  455 fps=3.0 q=33.0 size=   10537kB time=00:00:15.91 bitrate=5422.8kbits/s speed=0.106x    frame=  458 fps=3.0 q=33.0 size=   10537kB time=00:00:16.04 bitrate=5380.6kbits/s speed=0.105x    frame=  463 fps=3.0 q=33.0 size=   10537kB time=00:00:16.25 bitrate=5311.7kbits/s speed=0.106x    frame=  464 fps=3.0 q=33.0 size=   10537kB time=00:00:16.29 bitrate=5298.0kbits/s speed=0.106x    frame=  468 fps=3.0 q=33.0 size=   10537kB time=00:00:16.45 bitrate=5244.6kbits/s speed=0.106x    frame=  470 fps=3.0 q=33.0 size=   10537kB time=00:00:16.54 bitrate=5217.9kbits/s speed=0.106x    frame=  471 fps=3.0 q=33.0 size=   10537kB time=00:00:16.58 bitrate=5205.0kbits/s speed=0.106x    frame=  477 fps=3.0 q=33.0 size=   10537kB time=00:00:16.83 bitrate=5127.7kbits/s speed=0.106x    frame=  481 fps=3.0 q=33.0 size=   10537kB time=00:00:17.00 bitrate=5077.4kbits/s speed=0.107x    frame=  483 fps=3.0 q=33.0 size=   10537kB time=00:00:17.08 bitrate=5052.7kbits/s speed=0.107x    frame=  485 fps=3.0 q=33.0 size=   10537kB time=00:00:17.16 bitrate=5028.0kbits/s speed=0.107x    frame=  492 fps=3.0 q=33.0 size=   12409kB time=00:00:17.45 bitrate=5822.4kbits/s speed=0.108x    frame=  494 fps=3.0 q=33.0 size=   12409kB time=00:00:17.54 bitrate=5794.6kbits/s speed=0.108x    frame=  498 fps=3.0 q=33.0 size=   12409kB time=00:00:17.70 bitrate=5740.2kbits/s speed=0.108x    frame=  500 fps=3.0 q=33.0 size=   12409kB time=00:00:17.79 bitrate=5713.1kbits/s speed=0.108x    frame=  500 fps=2.8 q=-1.0 Lsize=   15066kB time=00:00:20.70 bitrate=5959.7kbits/s speed=0.115x    
video:15061kB audio:0kB subtitle:0kB other streams:0kB global headers:0kB muxing overhead: 0.031363%
bench: utime=634.824s
bench: maxrss=2153240kB
[libx264 @ 0x2a391c0] frame I:6     Avg QP:27.24  size:135150
[libx264 @ 0x2a391c0] frame P:273   Avg QP:33.71  size: 38546
[libx264 @ 0x2a391c0] frame B:221   Avg QP:33.08  size: 18497
[libx264 @ 0x2a391c0] consecutive B-frames: 35.2% 11.6% 18.0% 35.2%
[libx264 @ 0x2a391c0] mb I  I16..4: 27.9% 69.1%  3.0%
[libx264 @ 0x2a391c0] mb P  I16..4: 15.7% 27.9%  0.1%  P16..4: 20.1%  1.1%  0.9%  0.0%  0.0%    skip:34.1%
[libx264 @ 0x2a391c0] mb B  I16..4:  1.0%  1.5%  0.0%  B16..8: 29.9%  1.7%  0.3%  direct: 0.6%  skip:65.0%  L0:40.9% L1:57.6% BI: 1.5%
[libx264 @ 0x2a391c0] final ratefactor: 30.59
[libx264 @ 0x2a391c0] 8x8 transform intra:63.9% inter:88.4%
[libx264 @ 0x2a391c0] direct mvs  spatial:99.1% temporal:0.9%
[libx264 @ 0x2a391c0] coded y,uvDC,uvAC intra: 12.3% 19.7% 0.7% inter: 3.3% 3.2% 0.0%
[libx264 @ 0x2a391c0] i16 v,h,dc,p: 23% 28%  7% 42%
[libx264 @ 0x2a391c0] i8 v,h,dc,ddl,ddr,vr,hd,vl,hu: 24% 13% 45%  3%  3%  3%  4%  2%  3%
[libx264 @ 0x2a391c0] i4 v,h,dc,ddl,ddr,vr,hd,vl,hu: 14% 16%  8%  7% 12% 10% 14%  6% 12%
[libx264 @ 0x2a391c0] i8c dc,h,v,p: 84% 10%  5%  1%
[libx264 @ 0x2a391c0] Weighted P-Frames: Y:1.1% UV:0.7%
[libx264 @ 0x2a391c0] ref P L0: 63.8% 14.6% 10.6%  3.3%  2.3%  1.9%  1.8%  1.4%  0.3%  0.0%
[libx264 @ 0x2a391c0] ref B L0: 88.6%  6.3%  2.7%  1.0%  0.8%  0.5%  0.2%
[libx264 @ 0x2a391c0] ref B L1: 98.4%  1.6%
[libx264 @ 0x2a391c0] kb/s:5921.98
